<?xml version="1.0" encoding="utf-8"?>
<!-- Generator: Adobe Illustrator 16.0.0, SVG Export Plug-In . SVG Version: 6.00 Build 0)  -->
<!DOCTYPE svg PUBLIC "-//W3C//DTD SVG 1.1//EN" "http://www.w3.org/Graphics/SVG/1.1/DTD/svg11.dtd">
<svg version="1.1" id="Layer_2" xmlns="http://www.w3.org/2000/svg" xmlns:xlink="http://www.w3.org/1999/xlink" x="0px" y="0px"
	 width="33.063px" height="58.562px" viewBox="0 0 33.063 58.562" enable-background="new 0 0 33.063 58.562" xml:space="preserve">
<g>
	<path fill="none" stroke="#000000" stroke-width="3" d="M16.533,33.832"/>
	<g>
		<path fill="#007AA5" d="M16.616,58.095c0.416-8.076,4.867-21.195,11.317-29.45c3.514-4.499,5.131-8.883,5.131-11.543
			c0-9.239-7.402-16.728-16.531-16.728l0,0C7.402,0.375,0,7.864,0,17.103c0,2.66,1.617,7.044,5.131,11.543
			c6.45,8.255,10.901,21.374,11.315,29.45H16.616z"/>
		<path display="none" d="M17.217,58.728h-1.371l-0.031-0.599c-0.401-7.778-4.693-20.787-11.183-29.094
			c-3.882-4.968-5.266-9.421-5.266-11.932c0-9.572,7.699-17.36,17.165-17.36c9.463,0,17.163,7.788,17.163,17.36
			c0,2.51-1.383,6.964-5.266,11.932c-6.489,8.308-10.782,21.316-11.183,29.094L17.217,58.728L17.217,58.728z M16.533,1.007
			c-8.768,0-15.9,7.221-15.9,16.095c0,2.194,1.309,6.433,4.997,11.153c5.514,7.057,9.478,17.437,10.903,25.321
			c1.423-7.885,5.388-18.264,10.901-25.321c3.688-4.72,4.997-8.958,4.997-11.153C32.431,8.228,25.298,1.007,16.533,1.007
			L16.533,1.007z"/>
	</g>
	<circle fill="#00607A" cx="16.447" cy="16.486" r="7.01"/>
</g>
</svg>
