<?xml version="1.0" encoding="utf-8"?>
<!-- Generator: Adobe Illustrator 16.0.0, SVG Export Plug-In . SVG Version: 6.00 Build 0)  -->
<!DOCTYPE svg PUBLIC "-//W3C//DTD SVG 1.1//EN" "http://www.w3.org/Graphics/SVG/1.1/DTD/svg11.dtd">
<svg version="1.1" id="Layer_1" xmlns="http://www.w3.org/2000/svg" xmlns:xlink="http://www.w3.org/1999/xlink" x="0px" y="0px"
	 width="42.735px" height="42.735px" viewBox="0 0 42.735 42.735" enable-background="new 0 0 42.735 42.735" xml:space="preserve">
<g>
	<defs>
		<rect id="SVGID_1_" width="42.735" height="42.735"/>
	</defs>
	<clipPath id="SVGID_2_">
		<use xlink:href="#SVGID_1_"  overflow="visible"/>
	</clipPath>
	<circle clip-path="url(#SVGID_2_)" fill="#E0995E" cx="21.368" cy="21.368" r="21.368"/>
</g>
<g>
	<defs>
		<rect id="SVGID_3_" x="10.684" y="9.348" width="21.368" height="26.71"/>
	</defs>
	<clipPath id="SVGID_4_">
		<use xlink:href="#SVGID_3_"  overflow="visible"/>
	</clipPath>
	<g clip-path="url(#SVGID_4_)">
		<defs>
			<rect id="SVGID_5_" x="10.677" y="9.334" width="21.375" height="26.724"/>
		</defs>
		<clipPath id="SVGID_6_">
			<use xlink:href="#SVGID_5_"  overflow="visible"/>
		</clipPath>
		<g transform="matrix(1 0 0 1 0 9.536743e-007)" clip-path="url(#SVGID_6_)">
			
				<image overflow="visible" width="1067" height="1334" xlink:href="F440CB09.png"  transform="matrix(0.02 0 0 0.02 10.6772 9.3345)">
			</image>
		</g>
	</g>
</g>
<g>
	<defs>
		<rect id="SVGID_7_" width="42.735" height="42.735"/>
	</defs>
	<clipPath id="SVGID_8_">
		<use xlink:href="#SVGID_7_"  overflow="visible"/>
	</clipPath>
	<path clip-path="url(#SVGID_8_)" fill="#E0E0D1" d="M24.038,14.022V8.013H12.687c-1.107,0-2.003,0.896-2.003,2.002v22.704
		c0,1.106,0.896,2.003,2.003,2.003h17.361c1.107,0,2.003-0.896,2.003-2.003V16.026h-6.01C24.936,16.026,24.038,15.129,24.038,14.022
		z"/>
</g>
<g>
	<defs>
		<rect id="SVGID_9_" x="24.717" y="15.554" width="7.335" height="6.481"/>
	</defs>
	<clipPath id="SVGID_10_">
		<use xlink:href="#SVGID_9_"  overflow="visible"/>
	</clipPath>
	<g clip-path="url(#SVGID_10_)">
		<defs>
			<rect id="SVGID_11_" x="24.7" y="15.545" width="7.352" height="6.491"/>
		</defs>
		<clipPath id="SVGID_12_">
			<use xlink:href="#SVGID_11_"  overflow="visible"/>
		</clipPath>
		<g clip-path="url(#SVGID_12_)">
			
				<image overflow="visible" width="367" height="324" xlink:href="F440CB0A.png"  transform="matrix(0.02 0 0 0.02 24.7002 15.5449)">
			</image>
		</g>
	</g>
</g>
<g>
	<defs>
		<rect id="SVGID_13_" width="42.735" height="42.735"/>
	</defs>
	<clipPath id="SVGID_14_">
		<use xlink:href="#SVGID_13_"  overflow="visible"/>
	</clipPath>
	<path clip-path="url(#SVGID_14_)" fill="#FFFFFF" d="M24.038,8.013v6.009c0,1.107,0.897,2.003,2.004,2.003h6.01L24.038,8.013z"/>
</g>
<g>
	<defs>
		<rect id="SVGID_15_" x="14.69" y="14.69" width="6.427" height="1.335"/>
	</defs>
	<clipPath id="SVGID_16_">
		<use xlink:href="#SVGID_15_"  overflow="visible"/>
	</clipPath>
	<g clip-path="url(#SVGID_16_)">
		<defs>
			<rect id="SVGID_17_" x="14.684" y="14.684" width="6.45" height="1.342"/>
		</defs>
		<clipPath id="SVGID_18_">
			<use xlink:href="#SVGID_17_"  overflow="visible"/>
		</clipPath>
		<g transform="matrix(1 0 0 1 9.536743e-007 9.536743e-007)" clip-path="url(#SVGID_18_)">
			
				<image overflow="visible" width="322" height="67" xlink:href="F440CB08.png"  transform="matrix(0.02 0 0 0.02 14.6836 14.6836)">
			</image>
		</g>
	</g>
</g>
<g>
	<defs>
		<rect id="SVGID_19_" x="14.69" y="21.368" width="13.355" height="1.335"/>
	</defs>
	<clipPath id="SVGID_20_">
		<use xlink:href="#SVGID_19_"  overflow="visible"/>
	</clipPath>
	<g clip-path="url(#SVGID_20_)">
		<defs>
			<rect id="SVGID_21_" x="14.684" y="21.354" width="13.362" height="1.363"/>
		</defs>
		<clipPath id="SVGID_22_">
			<use xlink:href="#SVGID_21_"  overflow="visible"/>
		</clipPath>
		<g transform="matrix(1 0 0 1 9.536743e-007 1.907349e-006)" clip-path="url(#SVGID_22_)">
			
				<image overflow="visible" width="667" height="68" xlink:href="F440CB04.png"  transform="matrix(0.02 0 0 0.02 14.6836 21.354)">
			</image>
		</g>
	</g>
</g>
<g>
	<defs>
		<rect id="SVGID_23_" x="14.69" y="18.029" width="13.355" height="1.335"/>
	</defs>
	<clipPath id="SVGID_24_">
		<use xlink:href="#SVGID_23_"  overflow="visible"/>
	</clipPath>
	<g clip-path="url(#SVGID_24_)">
		<defs>
			<rect id="SVGID_25_" x="14.684" y="18.029" width="13.362" height="1.342"/>
		</defs>
		<clipPath id="SVGID_26_">
			<use xlink:href="#SVGID_25_"  overflow="visible"/>
		</clipPath>
		<g transform="matrix(1 0 0 1 9.536743e-007 0)" clip-path="url(#SVGID_26_)">
			
				<image overflow="visible" width="667" height="67" xlink:href="F440CB05.png"  transform="matrix(0.02 0 0 0.02 14.6836 18.0293)">
			</image>
		</g>
	</g>
</g>
<g>
	<defs>
		<rect id="SVGID_27_" x="14.69" y="24.706" width="13.355" height="1.336"/>
	</defs>
	<clipPath id="SVGID_28_">
		<use xlink:href="#SVGID_27_"  overflow="visible"/>
	</clipPath>
	<g clip-path="url(#SVGID_28_)">
		<defs>
			<rect id="SVGID_29_" x="14.684" y="24.699" width="13.362" height="1.343"/>
		</defs>
		<clipPath id="SVGID_30_">
			<use xlink:href="#SVGID_29_"  overflow="visible"/>
		</clipPath>
		<g transform="matrix(1 0 0 1 9.536743e-007 0)" clip-path="url(#SVGID_30_)">
			
				<image overflow="visible" width="667" height="67" xlink:href="F440CB06.png"  transform="matrix(0.02 0 0 0.02 14.6836 24.6987)">
			</image>
		</g>
	</g>
</g>
<g>
	<defs>
		<rect id="SVGID_31_" x="14.69" y="28.045" width="13.355" height="1.335"/>
	</defs>
	<clipPath id="SVGID_32_">
		<use xlink:href="#SVGID_31_"  overflow="visible"/>
	</clipPath>
	<g clip-path="url(#SVGID_32_)">
		<defs>
			<rect id="SVGID_33_" x="14.684" y="28.045" width="13.362" height="1.342"/>
		</defs>
		<clipPath id="SVGID_34_">
			<use xlink:href="#SVGID_33_"  overflow="visible"/>
		</clipPath>
		<g transform="matrix(1 0 0 1 9.536743e-007 0)" clip-path="url(#SVGID_34_)">
			
				<image overflow="visible" width="667" height="67" xlink:href="F440CB07.png"  transform="matrix(0.02 0 0 0.02 14.6836 28.0449)">
			</image>
		</g>
	</g>
</g>
</svg>
