<?xml version="1.0" encoding="utf-8"?>
<!-- Generator: Adobe Illustrator 16.0.0, SVG Export Plug-In . SVG Version: 6.00 Build 0)  -->
<!DOCTYPE svg PUBLIC "-//W3C//DTD SVG 1.1//EN" "http://www.w3.org/Graphics/SVG/1.1/DTD/svg11.dtd">
<svg version="1.1" id="Layer_2" xmlns="http://www.w3.org/2000/svg" xmlns:xlink="http://www.w3.org/1999/xlink" x="0px" y="0px"
	 width="186.168px" height="57.617px" viewBox="-78.998 -14.882 186.168 57.617"
	 enable-background="new -78.998 -14.882 186.168 57.617" xml:space="preserve">
<g>
	<path fill="#007F06" d="M14.107,18.453"/>
	<g>
		<path fill="#DB6D23" d="M14.188,42.339c0.41-7.953,4.792-20.866,11.141-28.992c3.459-4.428,5.051-8.744,5.051-11.361
			c0-9.096-7.286-16.468-16.272-16.468l0,0C5.12-14.482-2.166-7.11-2.166,1.986c0,2.618,1.592,6.933,5.051,11.361
			c6.349,8.126,10.73,21.039,11.139,28.992H14.188z"/>
		<path display="none" fill="#007F06" d="M14.781,42.958h-1.35l-0.03-0.59c-0.395-7.654-4.62-20.46-11.008-28.639
			c-3.82-4.89-5.182-9.273-5.182-11.745c0-9.423,7.579-17.09,16.896-17.09c9.316,0,16.896,7.667,16.896,17.09
			c0,2.472-1.361,6.854-5.183,11.745c-6.388,8.179-10.613,20.984-11.008,28.639L14.781,42.958L14.781,42.958z M14.107-13.86
			c-8.63,0-15.651,7.108-15.651,15.844c0,2.16,1.288,6.332,4.918,10.979c5.429,6.946,9.332,17.162,10.732,24.925
			c1.4-7.763,5.303-17.979,10.731-24.925c3.631-4.647,4.919-8.819,4.919-10.979C29.757-6.751,22.736-13.86,14.107-13.86
			L14.107-13.86z"/>
	</g>
	<circle fill="#9E4D16" cx="14.023" cy="1.377" r="6.901"/>
</g>
<rect x="29.766" y="18.453" fill="none" width="77.404" height="19.934"/>
<text transform="matrix(1 0 0 1 29.7659 29.8528)" fill="#DB6D23" font-family="'OpenSans-Regular'" font-size="15">Paczkomat</text>
</svg>
