<?xml version="1.0" encoding="utf-8"?>
<!-- Generator: Adobe Illustrator 16.0.0, SVG Export Plug-In . SVG Version: 6.00 Build 0)  -->
<!DOCTYPE svg PUBLIC "-//W3C//DTD SVG 1.1//EN" "http://www.w3.org/Graphics/SVG/1.1/DTD/svg11.dtd">
<svg version="1.1" id="Layer_2" xmlns="http://www.w3.org/2000/svg" xmlns:xlink="http://www.w3.org/1999/xlink" x="0px" y="0px"
	 width="42.735px" height="42.735px" viewBox="0 0 42.735 42.735" enable-background="new 0 0 42.735 42.735" xml:space="preserve">
<g>
	<path fill="none" stroke="#000000" stroke-width="3" d="M21.803,24.595"/>
	<g>
		<path fill="#F7DD4C" d="M21.863,41.91c0.296-5.764,3.473-15.125,8.076-21.016c2.508-3.21,3.662-6.339,3.662-8.237
			c0-6.593-5.282-11.938-11.797-11.938l0,0c-6.516,0-11.798,5.345-11.798,11.938c0,1.898,1.154,5.027,3.662,8.237
			c4.603,5.891,7.779,15.252,8.075,21.016H21.863z"/>
		<path d="M22.292,42.361h-0.978l-0.022-0.428c-0.286-5.55-3.349-14.833-7.98-20.762c-2.77-3.545-3.757-6.723-3.757-8.515
			c0-6.831,5.494-12.389,12.249-12.389c6.754,0,12.249,5.558,12.249,12.389c0,1.792-0.987,4.969-3.757,8.515
			c-4.631,5.929-7.694,15.212-7.98,20.762L22.292,42.361L22.292,42.361z M21.803,1.17c-6.256,0-11.346,5.153-11.346,11.486
			c0,1.566,0.934,4.59,3.566,7.959c3.935,5.036,6.764,12.443,7.78,18.07c1.016-5.627,3.845-13.034,7.78-18.07
			c2.632-3.369,3.566-6.393,3.566-7.959C33.149,6.323,28.059,1.17,21.803,1.17L21.803,1.17z"/>
	</g>
	<circle cx="21.742" cy="12.216" r="5.003"/>
</g>
</svg>
